<?xml version="1.0" encoding="UTF-8"?>
<svg id="bg" xmlns="http://www.w3.org/2000/svg" viewBox="0 0 100 40.61">
  <defs>
    <style>
      .cls-1 {
        fill: #004edd;
      }

      .cls-2 {
        fill: #fff;
      }

      .cls-3 {
        fill: #00ee49;
      }
    </style>
  </defs>
  <g id="Capa_1-2" data-name="Capa 1-2">
    <g>
      <path class="cls-2" d="M14,26.64c-.74,0-1.47-.03-2.22-.07-.75-.04-1.41-.14-1.97-.29v-13.47c.29-.05.6-.11.94-.15.33-.04.67-.08,1.02-.11.34-.03.7-.04,1.04-.05.34,0,.67-.01.97-.01.85,0,1.62.07,2.35.19.72.12,1.35.34,1.87.63.53.3.94.68,1.23,1.16.3.48.44,1.08.44,1.79,0,.66-.16,1.21-.46,1.68-.31.46-.75.85-1.31,1.12.85.29,1.46.7,1.86,1.24s.6,1.24.6,2.09c0,1.43-.52,2.5-1.56,3.21s-2.63,1.06-4.79,1.06h0ZM12.29,18.25h1.79c.96,0,1.72-.14,2.27-.41s.82-.76.82-1.47c0-.67-.29-1.15-.85-1.42-.57-.29-1.31-.42-2.21-.42-.38,0-.74,0-1.04.01-.3,0-.56.03-.76.05v3.64h-.01ZM12.29,20.23v4.23c.29.03.59.04.9.05.31,0,.61.01.89.01.52,0,1.01-.03,1.45-.1.45-.07.83-.18,1.16-.35.33-.16.59-.4.78-.67.19-.29.29-.64.29-1.08,0-.79-.29-1.34-.86-1.64s-1.36-.46-2.39-.46h-2.22.01Z"/>
      <path class="cls-2" d="M21.94,21.29c0-.91.14-1.73.41-2.43.27-.7.64-1.27,1.09-1.73s.97-.81,1.56-1.04,1.19-.35,1.8-.35c1.45,0,2.57.45,3.37,1.34.81.9,1.21,2.22,1.21,4v.45c0,.16-.01.31-.03.45h-6.91c.07.85.37,1.49.89,1.95.53.46,1.3.7,2.29.7.59,0,1.12-.05,1.61-.16s.87-.22,1.15-.34l.31,1.98c-.14.07-.31.14-.55.2s-.51.14-.81.2c-.3.05-.63.11-.97.15s-.7.05-1.06.05c-.91,0-1.72-.14-2.4-.41-.68-.27-1.24-.66-1.68-1.15s-.76-1.06-.98-1.72-.31-1.38-.31-2.17v.03ZM28.97,20.21c0-.33-.04-.66-.14-.96s-.23-.56-.41-.78-.4-.4-.66-.52c-.26-.12-.57-.19-.93-.19s-.7.07-.98.2c-.29.14-.52.33-.71.55-.19.23-.34.49-.45.78-.11.3-.18.6-.22.9h4.5-.01Z"/>
      <path class="cls-2" d="M54.29,26.48c-.19-.55-.38-1.09-.59-1.62-.2-.53-.4-1.08-.59-1.64h-5.86c-.19.56-.38,1.11-.57,1.65-.19.55-.38,1.08-.57,1.61h-2.62c.52-1.49,1.01-2.85,1.47-4.11.46-1.26.93-2.44,1.36-3.56.45-1.12.89-2.18,1.32-3.21.44-1.01.89-2.02,1.36-3h2.4c.46.98.91,1.99,1.36,3,.44,1.01.89,2.09,1.34,3.21.45,1.12.91,2.31,1.38,3.56.48,1.26.97,2.62,1.49,4.11h-2.73.03ZM50.2,15.28c-.31.71-.66,1.57-1.05,2.58-.4,1.01-.81,2.12-1.23,3.3h4.57c-.42-1.19-.85-2.29-1.24-3.33-.4-1.02-.75-1.88-1.04-2.57h-.01Z"/>
      <path class="cls-2" d="M63.98,19.88c-.3,1.17-.64,2.32-1,3.44-.25.78-.52,1.61-.78,2.38-.19.56-.71.93-1.3.93h0c-.56,0-1.05-.34-1.27-.85-.18-.45-.37-.93-.55-1.39-.3-.79-.59-1.62-.89-2.53s-.59-1.83-.89-2.83c-.3-.98-.59-1.99-.86-3.03h2.57c.12.56.26,1.16.42,1.82.16.64.33,1.31.51,1.98.18.67.35,1.34.55,1.98s.38,1.23.56,1.76c.2-.61.4-1.24.59-1.9.19-.66.38-1.31.55-1.97.18-.66.34-1.3.49-1.91s.29-1.2.41-1.75h1.86c.12.55.26,1.13.4,1.75.15.61.3,1.26.46,1.91s.34,1.31.55,1.97c.19.66.4,1.28.59,1.9.18-.53.35-1.12.55-1.76s.37-1.3.56-1.98c.18-.67.35-1.34.52-1.98.16-.64.3-1.26.42-1.82h2.5c-.29,1.02-.57,2.03-.86,3.03-.3.98-.59,1.92-.89,2.83s-.59,1.73-.89,2.53c-.18.48-.37.97-.56,1.42-.22.51-.71.83-1.26.83h0c-.59,0-1.09-.37-1.28-.91-.26-.76-.55-1.58-.81-2.38-.37-1.12-.71-2.27-1.01-3.44l.04-.03Z"/>
      <path class="cls-2" d="M76.3,15.73c.81,0,1.47.1,2.02.3.55.2.98.48,1.31.85.33.35.56.79.7,1.31s.2,1.08.2,1.69v6.35c-.37.08-.94.18-1.69.29-.75.11-1.61.16-2.55.16-.63,0-1.2-.05-1.72-.18-.52-.12-.97-.31-1.34-.59s-.66-.61-.86-1.04-.31-.96-.31-1.58.12-1.11.35-1.53c.23-.41.55-.75.96-1.01s.86-.45,1.39-.56,1.08-.16,1.65-.16c.27,0,.55.01.85.05.3.03.6.1.94.16v-.4c0-.29-.03-.55-.1-.81-.07-.26-.18-.48-.35-.67-.16-.19-.38-.34-.66-.45s-.61-.16-1.04-.16c-.56,0-1.08.04-1.54.12s-.85.18-1.15.29l-.3-1.97c.3-.11.75-.22,1.34-.31.59-.11,1.21-.16,1.88-.16h.01ZM76.5,24.77c.75,0,1.31-.04,1.71-.12v-2.69c-.14-.04-.33-.08-.59-.12s-.53-.05-.85-.05c-.27,0-.53.01-.81.05s-.52.11-.74.22c-.22.11-.4.26-.53.45-.14.19-.2.44-.2.74,0,.57.18.97.55,1.19.35.22.85.33,1.46.33h0Z"/>
      <path class="cls-2" d="M88.77,18.18c-.2-.07-.48-.14-.83-.2-.35-.07-.76-.11-1.23-.11-.27,0-.55.03-.85.08-.3.05-.51.1-.63.14v8.39h-2.43v-9.98c.46-.18,1.05-.34,1.75-.49s1.47-.23,2.33-.23c.16,0,.34,0,.56.03.22.01.42.04.64.08.22.03.42.07.61.12.2.04.35.1.48.14l-.42,2.05h.01Z"/>
      <path class="cls-2" d="M89.81,21.29c0-.91.14-1.73.41-2.43.27-.7.64-1.27,1.09-1.73s.97-.81,1.56-1.04,1.19-.35,1.8-.35c1.45,0,2.57.45,3.37,1.34.81.9,1.21,2.22,1.21,4v.45c0,.16-.01.31-.03.45h-6.91c.07.85.37,1.49.89,1.95.53.46,1.3.7,2.29.7.59,0,1.12-.05,1.61-.16s.87-.22,1.15-.34l.31,1.98c-.14.07-.31.14-.55.2s-.51.14-.81.2c-.3.05-.63.11-.97.15s-.7.05-1.06.05c-.91,0-1.72-.14-2.4-.41-.68-.27-1.24-.66-1.68-1.15s-.76-1.06-.98-1.72-.31-1.38-.31-2.17v.03ZM96.84,20.21c0-.33-.04-.66-.14-.96s-.23-.56-.41-.78c-.18-.22-.4-.4-.66-.52s-.57-.19-.93-.19-.7.07-.98.2c-.29.14-.52.33-.71.55-.19.23-.34.49-.45.78-.11.3-.18.6-.22.9h4.5-.01Z"/>
    </g>
  </g>
  <g>
    <circle class="cls-1" cx="25.33" cy="37.79" r="1.79"/>
    <path class="cls-1" d="M19.16,36.95c.91-.28,1.86.24,2.14,1.14s-.24,1.86-1.14,2.14c-.91.28-1.86-.24-2.14-1.14s.24-1.86,1.14-2.14Z"/>
    <path class="cls-1" d="M13.6,36.16c.79-.24,1.62.2,1.86.99s-.2,1.62-.99,1.86-1.62-.2-1.86-.99.2-1.62.99-1.86Z"/>
    <path class="cls-1" d="M8.63,33.74c.63-.19,1.3.16,1.5.8s-.16,1.3-.8,1.5-1.3-.16-1.5-.8.16-1.3.8-1.5Z"/>
    <path class="cls-1" d="M4.73,29.84c.52-.16,1.06.13,1.22.65s-.13,1.06-.65,1.22-1.06-.13-1.22-.65.13-1.06.65-1.22Z"/>
    <path class="cls-1" d="M2.25,24.76c.47-.14.97.12,1.12.6s-.12.97-.6,1.12-.97-.12-1.12-.6.12-.97.6-1.12Z"/>
    <path class="cls-1" d="M1.44,19.02c.52-.16,1.06.13,1.22.65s-.13,1.06-.65,1.22-1.06-.13-1.22-.65.13-1.06.65-1.22Z"/>
    <path class="cls-1" d="M2.1,13.5c.63-.19,1.3.16,1.5.8s-.16,1.3-.8,1.5-1.3-.16-1.5-.8.16-1.3.8-1.5Z"/>
    <path class="cls-1" d="M4.8,8.06c.79-.24,1.62.2,1.86.99s-.2,1.62-.99,1.86-1.62-.2-1.86-.99.2-1.62.99-1.86Z"/>
    <path class="cls-3" d="M9.04,3.66c.91-.28,1.86.24,2.14,1.14s-.24,1.86-1.14,2.14-1.86-.24-2.14-1.14.24-1.86,1.14-2.14Z"/>
    <circle class="cls-3" cx="20.36" cy="2.02" r="1.71"/>
    <path class="cls-3" d="M25.56,1.6c.79-.24,1.62.2,1.86.99s-.2,1.62-.99,1.86-1.62-.2-1.86-.99.2-1.62.99-1.86Z"/>
    <path class="cls-3" d="M30.69,4.57c.63-.19,1.3.16,1.5.8s-.16,1.3-.8,1.5-1.3-.16-1.5-.8.16-1.3.8-1.5Z"/>
    <path class="cls-3" d="M34.72,8.91c.52-.16,1.06.13,1.22.65s-.13,1.06-.65,1.22-1.06-.13-1.22-.65.13-1.06.65-1.22Z"/>
    <path class="cls-3" d="M37.24,14.14c.47-.14.97.12,1.12.6s-.12.97-.6,1.12-.97-.12-1.12-.6.12-.97.6-1.12Z"/>
    <path class="cls-3" d="M38.01,19.73c.52-.16,1.06.13,1.22.65s-.13,1.06-.65,1.22-1.06-.13-1.22-.65.13-1.06.65-1.22Z"/>
    <path class="cls-3" d="M36.93,25.14c.63-.19,1.3.16,1.5.8s-.16,1.3-.8,1.5-1.3-.16-1.5-.8.16-1.3.8-1.5Z"/>
    <path class="cls-3" d="M34.15,29.91c.79-.24,1.62.2,1.86.99s-.2,1.62-.99,1.86-1.62-.2-1.86-.99.2-1.62.99-1.86Z"/>
    <circle class="cls-1" cx="30.46" cy="35.31" r="1.71"/>
    <path class="cls-3" d="M14.17,1.09c.95-.29,1.95.25,2.24,1.19s-.25,1.95-1.19,2.24c-.95.29-1.95-.25-2.24-1.19s.25-1.95,1.19-2.24Z"/>
  </g>
</svg>